<svg id="Layer_1" data-name="Layer 1" xmlns="http://www.w3.org/2000/svg" viewBox="0 0 72.27 20.96"><defs><style>.cls-1{fill:#e42d83;}.cls-2{fill:#67b1c8;}</style></defs><title>LOGO ESTEBAN2</title><path class="cls-1" d="M3.14,9.45A.89.89,0,0,0,4,8.8H7.79a1,1,0,0,0,1-1V5.14a.89.89,0,0,0,.65-.87.91.91,0,0,0-1.82,0,.89.89,0,0,0,.65.87V7.79a.49.49,0,0,1-.49.49H4a.89.89,0,0,0-.86-.65.91.91,0,1,0,0,1.82Z"/><path class="cls-1" d="M9.06,10.74a1.68,1.68,0,0,0,1.68-1.68V1.78A.91.91,0,0,0,10.48,0a.91.91,0,0,0-.91.91.92.92,0,0,0,.65.87V9.06a1.16,1.16,0,0,1-1.16,1.16H1.78a.92.92,0,0,0-.87-.65.91.91,0,0,0,0,1.82.9.9,0,0,0,.87-.65Z"/><path class="cls-1" d="M8.8,16.92V13.13a1,1,0,0,0-1-1H5.05a.91.91,0,1,0,0,.52H7.79a.49.49,0,0,1,.49.49v3.79a.89.89,0,0,0-.65.86.91.91,0,1,0,1.82,0A.89.89,0,0,0,8.8,16.92Z"/><path class="cls-2" d="M12.12,4.1V7.79a1,1,0,0,0,1,1h2.74a.91.91,0,1,0,0-.52H13.13a.49.49,0,0,1-.49-.49V4.1a.89.89,0,0,0,.65-.87.91.91,0,1,0-1.82,0A.89.89,0,0,0,12.12,4.1Z"/><path class="cls-2" d="M17.78,11.47a.89.89,0,0,0-.86.65H13.13a1,1,0,0,0-1,1v2.74a.91.91,0,1,0,.52,0V13.13a.49.49,0,0,1,.49-.49h3.79a.89.89,0,0,0,.86.65.91.91,0,1,0,0-1.82Z"/><path class="cls-2" d="M20,9.57a.92.92,0,0,0-.87.65H11.93A1.77,1.77,0,0,0,10.16,12v7.19a.91.91,0,0,0-.65.87.91.91,0,1,0,1.82,0,.92.92,0,0,0-.65-.87V12a1.25,1.25,0,0,1,1.25-1.25h7.19a.91.91,0,0,0,1.78-.26A.91.91,0,0,0,20,9.57Z"/><path class="cls-1" d="M29.05,13.55H28a.43.43,0,0,1-.28-.09.5.5,0,0,1-.16-.22L27,11.78h-3l-.54,1.46a.51.51,0,0,1-.15.21.46.46,0,0,1-.29.1H22l2.83-7.18h1.36Zm-2.36-2.71-.88-2.39-.13-.38c-.05-.14-.09-.3-.14-.47,0,.17-.09.33-.13.47s-.09.28-.14.39l-.87,2.38Z"/><path class="cls-1" d="M30.73,9.08c.11-.1.21-.2.33-.29a2.16,2.16,0,0,1,.36-.22,1.8,1.8,0,0,1,.41-.14,1.75,1.75,0,0,1,.48-.06,1.78,1.78,0,0,1,.74.15,1.38,1.38,0,0,1,.53.39,1.64,1.64,0,0,1,.33.61,2.45,2.45,0,0,1,.11.78v3.25H32.8V10.3a1.05,1.05,0,0,0-.22-.72.8.8,0,0,0-.65-.25,1.2,1.2,0,0,0-.59.14,2.41,2.41,0,0,0-.53.39v3.69H29.59V8.45h.75a.31.31,0,0,1,.31.23Z"/><path class="cls-1" d="M35.06,9.16a3.07,3.07,0,0,1,2.12-.8,2,2,0,0,1,.8.15,1.62,1.62,0,0,1,.59.4,1.59,1.59,0,0,1,.37.63,2.22,2.22,0,0,1,.13.79v3.22h-.56a.48.48,0,0,1-.26-.06.29.29,0,0,1-.15-.21L38,12.92l-.38.3a2.08,2.08,0,0,1-.38.22,1.81,1.81,0,0,1-.43.14,2.49,2.49,0,0,1-.49,0,1.9,1.9,0,0,1-.6-.08,1.43,1.43,0,0,1-.47-.26,1.22,1.22,0,0,1-.31-.43,1.64,1.64,0,0,1-.11-.6,1.07,1.07,0,0,1,.07-.39,1,1,0,0,1,.21-.36,1.39,1.39,0,0,1,.38-.33,2.53,2.53,0,0,1,.57-.27,4.83,4.83,0,0,1,.79-.19,9.82,9.82,0,0,1,1-.08v-.3a1.17,1.17,0,0,0-.22-.76A.82.82,0,0,0,37,9.33a1.43,1.43,0,0,0-.5.07,2.16,2.16,0,0,0-.34.15l-.27.16a.52.52,0,0,1-.27.07.32.32,0,0,1-.22-.07.54.54,0,0,1-.15-.15Zm2.82,2.21a8.49,8.49,0,0,0-.9.09,3.46,3.46,0,0,0-.58.17.82.82,0,0,0-.31.25.58.58,0,0,0,.09.76.8.8,0,0,0,.5.14,1.53,1.53,0,0,0,.66-.13,2.2,2.2,0,0,0,.54-.42Z"/><path class="cls-1" d="M40.22,13.55V8.45H41a.3.3,0,0,1,.31.23l.08.37.28-.27A2.2,2.2,0,0,1,42,8.57a1.51,1.51,0,0,1,.35-.14,1.42,1.42,0,0,1,.42-.06,1.19,1.19,0,0,1,.79.26,1.58,1.58,0,0,1,.47.7,1.55,1.55,0,0,1,.3-.44,1.52,1.52,0,0,1,.39-.29,1.74,1.74,0,0,1,.45-.17,2,2,0,0,1,.49-.06,2.18,2.18,0,0,1,.75.13,1.51,1.51,0,0,1,.55.38,1.72,1.72,0,0,1,.34.61,2.52,2.52,0,0,1,.11.81v3.25H46.15V10.3a1.06,1.06,0,0,0-.22-.73.78.78,0,0,0-.62-.24,1,1,0,0,0-.35.06.77.77,0,0,0-.28.19.67.67,0,0,0-.19.3,1.16,1.16,0,0,0-.07.42v3.25H43.18V10.3a1.09,1.09,0,0,0-.2-.74.78.78,0,0,0-.6-.23,1,1,0,0,0-.5.13,1.62,1.62,0,0,0-.43.36v3.73Z"/><path class="cls-1" d="M49.68,9.08A3.11,3.11,0,0,1,50,8.79a2.16,2.16,0,0,1,.36-.22,1.8,1.8,0,0,1,.41-.14A1.89,1.89,0,0,1,52,8.52a1.34,1.34,0,0,1,.54.39,1.64,1.64,0,0,1,.33.61,2.77,2.77,0,0,1,.11.78v3.25H51.75V10.3a1.1,1.1,0,0,0-.22-.72.8.8,0,0,0-.65-.25,1.2,1.2,0,0,0-.59.14,2.41,2.41,0,0,0-.53.39v3.69H48.53V8.45h.75a.31.31,0,0,1,.32.23Z"/><path class="cls-1" d="M55.08,11.15a2.21,2.21,0,0,0,.14.68,1.28,1.28,0,0,0,.28.47,1,1,0,0,0,.43.28,1.77,1.77,0,0,0,1,0,1.67,1.67,0,0,0,.38-.15l.28-.16a.57.57,0,0,1,.24-.06.25.25,0,0,1,.23.11l.35.45a2,2,0,0,1-.46.4,2.49,2.49,0,0,1-.52.25,3.06,3.06,0,0,1-.56.14,3.69,3.69,0,0,1-.56,0,2.72,2.72,0,0,1-1-.18,2.09,2.09,0,0,1-.79-.52,2.36,2.36,0,0,1-.53-.85,3.28,3.28,0,0,1-.2-1.18,2.88,2.88,0,0,1,.17-1,2.5,2.5,0,0,1,.49-.8,2.27,2.27,0,0,1,.77-.54,2.63,2.63,0,0,1,1.91,0,1.92,1.92,0,0,1,.7.45,2,2,0,0,1,.46.72,2.76,2.76,0,0,1,.17,1,.82.82,0,0,1-.06.38.26.26,0,0,1-.23.09Zm2.33-.74a1.74,1.74,0,0,0-.06-.45,1.25,1.25,0,0,0-.2-.36,1.1,1.1,0,0,0-.34-.26,1.21,1.21,0,0,0-.48-.09,1.1,1.1,0,0,0-.84.31,1.5,1.5,0,0,0-.39.85Z"/><path class="cls-1" d="M62.54,9.45a.36.36,0,0,1-.1.11.32.32,0,0,1-.14,0,.45.45,0,0,1-.19-.05l-.24-.11a1.85,1.85,0,0,0-.31-.11,1.18,1.18,0,0,0-.4-.05,1,1,0,0,0-.57.15.47.47,0,0,0-.2.4.4.4,0,0,0,.1.28.91.91,0,0,0,.29.19,2.87,2.87,0,0,0,.39.16l.46.14.45.18a1.62,1.62,0,0,1,.4.26,1.37,1.37,0,0,1,.29.38,1.18,1.18,0,0,1,.1.52,1.68,1.68,0,0,1-.13.68,1.5,1.5,0,0,1-.39.54,1.86,1.86,0,0,1-.64.35,2.86,2.86,0,0,1-.87.12,3,3,0,0,1-.52,0,4.27,4.27,0,0,1-.48-.13,4.09,4.09,0,0,1-.42-.2,2,2,0,0,1-.35-.25l.28-.47a.53.53,0,0,1,.13-.13.36.36,0,0,1,.19,0,.43.43,0,0,1,.22.06,1.54,1.54,0,0,0,.23.14,1.92,1.92,0,0,0,.32.14,1.2,1.2,0,0,0,.46.07,1,1,0,0,0,.37-.06.79.79,0,0,0,.26-.13.48.48,0,0,0,.15-.2.59.59,0,0,0,0-.23.4.4,0,0,0-.11-.29,1,1,0,0,0-.28-.2,2.19,2.19,0,0,0-.41-.15l-.46-.15a4.37,4.37,0,0,1-.46-.18,2.33,2.33,0,0,1-.4-.27,1.2,1.2,0,0,1-.28-.41,1.41,1.41,0,0,1-.11-.57,1.53,1.53,0,0,1,.12-.6,1.48,1.48,0,0,1,.37-.49,1.74,1.74,0,0,1,.6-.34,2.63,2.63,0,0,1,.83-.13,2.49,2.49,0,0,1,1,.18,2.16,2.16,0,0,1,.72.45Z"/><path class="cls-1" d="M68.32,8.45,65.55,15a.59.59,0,0,1-.14.19.41.41,0,0,1-.27.07h-.91l1-2.05L63.12,8.45H64.2a.36.36,0,0,1,.22.07.48.48,0,0,1,.13.16l1.08,2.64.09.27c0,.09,0,.18.07.27l.09-.27c0-.09.06-.18.1-.27l1-2.64a.4.4,0,0,1,.13-.16.38.38,0,0,1,.21-.07Z"/><path class="cls-1" d="M71.93,9.45a.27.27,0,0,1-.1.11.29.29,0,0,1-.14,0,.49.49,0,0,1-.19-.05l-.24-.11a1.72,1.72,0,0,0-.3-.11,1.22,1.22,0,0,0-.4-.05.92.92,0,0,0-.57.15.48.48,0,0,0-.21.4.41.41,0,0,0,.11.28.86.86,0,0,0,.28.19,3,3,0,0,0,.4.16l.45.14.46.18a1.84,1.84,0,0,1,.4.26,1.19,1.19,0,0,1,.39.9,1.87,1.87,0,0,1-.13.68,1.5,1.5,0,0,1-.39.54,2.07,2.07,0,0,1-.64.35,3.28,3.28,0,0,1-1.39.08,3.36,3.36,0,0,1-.48-.13,3.45,3.45,0,0,1-.43-.2,2.3,2.3,0,0,1-.34-.25l.28-.47a.53.53,0,0,1,.13-.13.36.36,0,0,1,.19,0,.39.39,0,0,1,.21.06l.24.14a1.8,1.8,0,0,0,.31.14,1.24,1.24,0,0,0,.46.07,1.08,1.08,0,0,0,.38-.06.73.73,0,0,0,.25-.13.48.48,0,0,0,.15-.2.46.46,0,0,0,.05-.23.36.36,0,0,0-.11-.29.88.88,0,0,0-.28-.2,2.08,2.08,0,0,0-.4-.15l-.46-.15a3.66,3.66,0,0,1-.46-.18,2.42,2.42,0,0,1-.41-.27,1.35,1.35,0,0,1-.28-.41,1.41,1.41,0,0,1-.11-.57,1.54,1.54,0,0,1,.13-.6,1.33,1.33,0,0,1,.36-.49,1.74,1.74,0,0,1,.6-.34,2.65,2.65,0,0,1,.84-.13,2.4,2.4,0,0,1,.95.18,2.16,2.16,0,0,1,.72.45Z"/></svg>